<svg xmlns="http://www.w3.org/2000/svg" width="12" height="14.861" viewBox="0 0 12 14.861">
  <g id="Asset_2" data-name="Asset 2" transform="translate(-1 -1.338)" style="mix-blend-mode: multiply;isolation: isolate">
    <g id="Layer_2" data-name="Layer 2" transform="translate(1 1.338)">
      <g id="Layer_1" data-name="Layer 1">
        <path id="Path_8" data-name="Path 8" d="M10.667,4.914H9.758V3.789a3.789,3.789,0,1,0-7.579,0V4.914H1.263A1.263,1.263,0,0,0,0,6.177v7.389a1.3,1.3,0,0,0,1.263,1.295h9.4A1.3,1.3,0,0,0,12,13.566V6.2a1.3,1.3,0,0,0-1.333-1.288ZM3.9,3.789a2.078,2.078,0,0,1,4.149,0V4.914H3.9Zm2.773,7.674v1.895a.139.139,0,0,1-.145.133h-.9a.133.133,0,0,1-.133-.133V11.463a1.655,1.655,0,1,1,1.181,0Z" transform="translate(0)" fill="#0e1013"/>
      </g>
    </g>
  </g>
</svg>
