<svg width="25" height="24" viewBox="0 0 25 24" fill="none" xmlns="http://www.w3.org/2000/svg">
<path d="M4.31341 3.51472C8.9997 -1.17157 16.5977 -1.17157 21.284 3.51472C25.9703 8.20101 25.9703 15.799 21.284 20.4853C16.5977 25.1716 8.9997 25.1716 4.31341 20.4853C-0.372885 15.799 -0.372885 8.20101 4.31341 3.51472ZM8.55605 7.75736C8.28756 8.02584 8.26519 8.44724 8.48893 8.74122L8.55605 8.81802L11.738 12L8.55605 15.182C8.26315 15.4749 8.26315 15.9497 8.55605 16.2426C8.82453 16.5111 9.24593 16.5335 9.5399 16.3098L9.61671 16.2426L12.7987 13.0607L15.9807 16.2426C16.2736 16.5355 16.7484 16.5355 17.0413 16.2426C17.3098 15.9742 17.3322 15.5528 17.1084 15.2588L17.0413 15.182L13.8593 12L17.0413 8.81802C17.3342 8.52513 17.3342 8.05025 17.0413 7.75736C16.7728 7.48887 16.3514 7.4665 16.0575 7.69024L15.9807 7.75736L12.7987 10.9393L9.61671 7.75736C9.32381 7.46447 8.84894 7.46447 8.55605 7.75736Z" fill="#B3B2BA"/>
</svg>
