<svg xmlns="http://www.w3.org/2000/svg" xmlns:xlink="http://www.w3.org/1999/xlink" width="129" height="41" viewBox="0 0 129 41">
  <defs>
    <clipPath id="clip-path">
      <rect id="Rectangle_85" data-name="Rectangle 85" width="129" height="41" fill="#fff"/>
    </clipPath>
  </defs>
  <g id="Group_73" data-name="Group 73" transform="translate(0 0)">
    <g id="Group_72" data-name="Group 72" transform="translate(0 0)" clip-path="url(#clip-path)">
      <path id="Path_6404" data-name="Path 6404" d="M61.962,14.263c-1.136-.4-2.323-.668-3.473-1.029a13.255,13.255,0,0,1-2.14-.793,1.358,1.358,0,0,1,.005-2.429,4.486,4.486,0,0,1,2.355-.46,2.523,2.523,0,0,1,2.75,2.122.373.373,0,0,0,.275.235c.966-.013,1.93-.05,2.918-.083A4.665,4.665,0,0,0,61.822,7.5,8.975,8.975,0,0,0,55.562,7.4,4.215,4.215,0,0,0,52.6,11.706a4.283,4.283,0,0,0,2.961,3.906c1.135.447,2.337.717,3.507,1.078a15.141,15.141,0,0,1,1.9.632,1.648,1.648,0,0,1,.833,2.352,2.577,2.577,0,0,1-.824.959,3.794,3.794,0,0,1-5.808-2.183c-.075-.291-.18-.4-.483-.364-.774.089-1.551.16-2.327.22-.3.022-.365.159-.33.436a5.543,5.543,0,0,0,4.338,4.868,10.468,10.468,0,0,0,5.148-.1,4.829,4.829,0,0,0,.451-9.247" transform="translate(15.046 1.992)" fill="#fff" fill-rule="evenodd"/>
      <path id="Path_6405" data-name="Path 6405" d="M79.9,10.473a5.7,5.7,0,0,0-4.585,1.938,6.5,6.5,0,0,0-1.385,5.5,5.259,5.259,0,0,0,1.679,3.334,6.26,6.26,0,0,0,6.427,1.212A5.721,5.721,0,0,0,85.9,17.52a5.979,5.979,0,0,0-6-7.047m2.172,8.877a2.691,2.691,0,0,1-2.82.962,2.719,2.719,0,0,1-2.1-2.007,5.6,5.6,0,0,1,.019-3.379,2.849,2.849,0,0,1,2.956-2,2.814,2.814,0,0,1,2.508,2.138c.137.517.183,1.058.271,1.588a4.473,4.473,0,0,1-.837,2.7" transform="translate(21.354 3.029)" fill="#fff" fill-rule="evenodd"/>
      <path id="Path_6406" data-name="Path 6406" d="M99.04,19.435a1.44,1.44,0,0,1-.325.518,2.255,2.255,0,0,1-2.763.336,2.672,2.672,0,0,1-1.273-2.773h7.785c-.045-.677-.054-1.292-.133-1.9a5.828,5.828,0,0,0-2.076-4.087c-1.957-1.546-5.9-1.618-7.718,1.2a7.666,7.666,0,0,0-.994,5.13,5.713,5.713,0,0,0,1.438,3.361,5.879,5.879,0,0,0,8.821-.872,8.971,8.971,0,0,0,.432-.939c-.851-.147-1.621-.255-2.377-.416-.431-.094-.687-.012-.817.437m-3.16-6.4a2.237,2.237,0,0,1,2.437.083,2.637,2.637,0,0,1,1.091,2.555H94.625a2.69,2.69,0,0,1,1.256-2.638" transform="translate(26.462 3.028)" fill="#fff" fill-rule="evenodd"/>
      <path id="Path_6407" data-name="Path 6407" d="M71.469,19.63a2.424,2.424,0,0,1-4.062-.846,6.939,6.939,0,0,1-.049-4.367,2.439,2.439,0,0,1,3.685-1.2,6.687,6.687,0,0,1,1.077,1.413c.71-.128,1.538-.28,2.367-.423.218-.037.379-.1.284-.365a4.93,4.93,0,0,0-1.688-2.426,5.847,5.847,0,0,0-4.1-.91,4.971,4.971,0,0,0-4.524,3.339,8.054,8.054,0,0,0-.067,5.473,4.759,4.759,0,0,0,1.381,2.138,6.148,6.148,0,0,0,7.433.3,5.165,5.165,0,0,0,1.813-3.121l-2.839-.482a11.179,11.179,0,0,1-.709,1.485" transform="translate(18.497 3.027)" fill="#fff" fill-rule="evenodd"/>
      <path id="Path_6408" data-name="Path 6408" d="M92.3,10.814c-1.431-.561-2.787-.6-3.91,1.073a3.433,3.433,0,0,1-.346.382l-.125-.055V10.69c-.829,0-1.59.012-2.353-.006-.316-.009-.414.1-.413.407q.008,5.514,0,11.022c0,.344.15.434.462.429.685-.01,1.369-.017,2.053,0,.366.012.494-.107.492-.487-.009-1.525-.031-3.056.043-4.579a15.047,15.047,0,0,1,.406-3.052,1.718,1.718,0,0,1,2.345-1.173c.257.077.5.187.841.316.267-.743.5-1.449.775-2.139.133-.334.041-.492-.269-.616" transform="translate(24.631 3.028)" fill="#fff" fill-rule="evenodd"/>
      <path id="Path_6409" data-name="Path 6409" d="M33.911,18.019c-.041.012-.083.021-.126.032-.453-.737-.909-1.477-1.36-2.215q-2.549-4.168-5.1-8.329c-.089-.147-.255-.348-.391-.353-.979-.03-1.958-.015-2.951-.015V23.5h2.974V12.863l.139-.041c.108.168.223.334.327.505,1.927,3.137,3.876,6.265,5.764,9.426a1.356,1.356,0,0,0,1.461.793c.735-.068,1.48-.014,2.214-.014V7.171H33.911Z" transform="translate(6.938 2.064)" fill="#fff" fill-rule="evenodd"/>
      <path id="Path_6410" data-name="Path 6410" d="M46.826,14.683a5.053,5.053,0,0,0-4.387-4.173,5.107,5.107,0,0,0-5.577,2.764,7.669,7.669,0,0,0,.107,7.068,4.138,4.138,0,0,0,2.037,1.934,6.555,6.555,0,0,0,5.019.2A4.7,4.7,0,0,0,46.9,19.4c-1.029-.178-2.009-.342-2.977-.508-.686,1.481-1.423,1.918-2.7,1.624a2.772,2.772,0,0,1-1.967-2.985h.544c2.276,0,4.55-.008,6.823.009.391,0,.517-.133.474-.5-.093-.786-.111-1.592-.276-2.362m-7.516.971a2.684,2.684,0,0,1,.927-2.386,2.228,2.228,0,0,1,2.549-.236,2.687,2.687,0,0,1,1.287,2.622Z" transform="translate(10.428 3.023)" fill="#fff" fill-rule="evenodd"/>
      <path id="Path_6411" data-name="Path 6411" d="M52.307,20.962c-.289.072-.5.13-.719.178-.993.222-1.407-.1-1.409-1.119q-.006-2.794,0-5.586c0-.137.018-.272.032-.447H52.3c0-.687-.018-1.336.008-1.982.015-.373-.133-.46-.473-.446-.535.023-1.074.006-1.671.006V7.4c-.91.535-1.735,1.037-2.58,1.507a.772.772,0,0,0-.471.823c.045.6.012,1.2.012,1.841H45.718v2.443h1.408c0,.654,0,1.253,0,1.854.01,1.719-.008,3.436.044,5.152a2.39,2.39,0,0,0,.982,2.165,4.764,4.764,0,0,0,4.226.159.265.265,0,0,0,.152-.208c-.063-.718-.146-1.438-.223-2.171" transform="translate(13.225 2.14)" fill="#fff" fill-rule="evenodd"/>
      <path id="Path_6412" data-name="Path 6412" d="M28.141,40.77c-.658-.281-.583-.865-.606-1.4-.023-.572,0-1.146-.037-1.717-.086-1.524-.139-3.05-.3-4.565a8.419,8.419,0,0,0-3.032-5.913,29.943,29.943,0,0,0-3.11-2c-.263-.16-.416-.3-.366-.627a18.357,18.357,0,0,1,.308-2.163c.553-1.973,1.194-3.919,1.779-5.883a15.226,15.226,0,0,0,.52-7.855,16.636,16.636,0,0,0-3.45-6.726C19.342,1.291,18.8.7,18.194,0c-.039.574-.059,1-.1,1.421a8.97,8.97,0,0,0,.585,4.133,16.451,16.451,0,0,1,1.2,7.795,7.817,7.817,0,0,1-2,4.7,7.335,7.335,0,0,1-6.827,2.215,6.006,6.006,0,0,1-5.133-3.935.41.41,0,0,0-.286-.236c-1.542-.014-3.084-.009-4.628-.009.073.375.07.385.553.563a1.872,1.872,0,0,1,1.234,1.1,7.978,7.978,0,0,0,4.186,4.539A19.015,19.015,0,0,0,13.65,23.97c.4.039.507.169.491.552-.032.731-.031,1.465-.018,2.2a.557.557,0,0,1-.383.614,18.488,18.488,0,0,0-7.35,5.842C4.693,35.367,3.182,37.706,1.616,40c-.285.418-.56.709-1.1.639-.382-.05-.547.151-.507.548H6.6c.241-.839.418-1.666.713-2.446a15.868,15.868,0,0,1,5.127-6.752,12.428,12.428,0,0,1,5.915-2.8,4.217,4.217,0,0,1,4.983,3.054,9.736,9.736,0,0,1,.4,3.487,4.806,4.806,0,0,1-.191,1.688,13.032,13.032,0,0,0-.775,3.475c-.034.237.035.364.3.364q2.626-.006,5.246,0c.019-.048.037-.1.054-.15-.075-.113-.124-.286-.227-.331" transform="translate(0 0)" fill="#fff" fill-rule="evenodd"/>
      <path id="Path_6413" data-name="Path 6413" d="M11.524,15.725a3.938,3.938,0,0,0,4.1-3.819,3.855,3.855,0,0,0-7.709-.088,3.957,3.957,0,0,0,3.607,3.906" transform="translate(2.29 2.323)" fill="#fff" fill-rule="evenodd"/>
      <path id="Path_6414" data-name="Path 6414" d="M3.132,12.518a1.865,1.865,0,0,0,1.85-1.8,1.853,1.853,0,0,0-3.7-.046,1.865,1.865,0,0,0,1.853,1.85" transform="translate(0.37 2.574)" fill="#fff" fill-rule="evenodd"/>
      <path id="Path_6415" data-name="Path 6415" d="M11.735,3.814a1.8,1.8,0,0,0,1.842-1.786A1.861,1.861,0,0,0,11.76.2,1.906,1.906,0,0,0,9.875,2.025a1.869,1.869,0,0,0,1.86,1.789" transform="translate(2.856 0.057)" fill="#fff" fill-rule="evenodd"/>
      <path id="Path_6416" data-name="Path 6416" d="M6.5,6.908a1.808,1.808,0,1,0,.023-3.615A1.862,1.862,0,0,0,4.635,5.111a1.883,1.883,0,0,0,1.86,1.8" transform="translate(1.341 0.952)" fill="#fff" fill-rule="evenodd"/>
    </g>
  </g>
</svg>
