<svg xmlns="http://www.w3.org/2000/svg" width="17.84" height="17.84" viewBox="0 0 17.84 17.84">
  <path id="Icon_awesome-registered" data-name="Icon awesome-registered" d="M10.539,7.737A.914.914,0,0,1,9.516,8.76H8.441V6.741h.841c1.031,0,1.256.316,1.256,1ZM18.4,9.482A8.92,8.92,0,1,1,9.482.563,8.92,8.92,0,0,1,18.4,9.482Zm-5.057,3.756c-1.681-3.051-1.557-2.828-1.608-2.913A3.149,3.149,0,0,0,13.1,7.646c0-1.951-1.133-3.21-3.795-3.21H6.767A.863.863,0,0,0,5.9,5.3v8.355a.863.863,0,0,0,.863.863h.812a.863.863,0,0,0,.863-.863V11.077h.919l1.587,2.983a.863.863,0,0,0,.762.458h.88A.863.863,0,0,0,13.346,13.238Z" transform="translate(-0.563 -0.563)" fill="#0e1013"/>
</svg>
